<svg width="1596" height="1663" viewBox="0 0 1596 1663" fill="none" xmlns="http://www.w3.org/2000/svg">
<path d="M1101 343.5L747 52L380 343.5L528.5 948.5L188.5 873L307 1631.5H1163L1546.5 889L1352 600L1071 692L1101 343.5Z" fill="#992800"/>
<path d="M1375.53 546.939L1094.74 655.772L1146.73 324.42L746.695 0L346.655 323.727L438.865 908.792L192.74 812.437L0 1104.28L277.324 1663H1205.67L1410.89 1248.46L1596 883.144L1375.53 546.939ZM1324.92 666.17L1322.84 817.982L1200.81 772.924L1324.92 666.17ZM472.837 1594.37L332.789 1019.01L230.179 899.781L451.345 989.897L547.022 1594.37H472.837ZM444.412 333.432L644.085 168.449L571.288 341.75L444.412 333.432ZM886.05 1594.37L935.275 1100.12L978.954 960.783L791.067 1069.62V1594.37H712.723L646.165 354.228L747.388 89.4235L1074.63 352.148L978.954 960.783L1124.55 1121.61L971.328 1594.37H886.05ZM1157.83 1594.37H1099.59L1397.02 846.404L1393.55 700.831L1516.27 887.996L1157.83 1594.37Z" fill="#E65B00"/>
<path d="M980.174 1102.34C1035.92 1132.21 1143.29 1123.06 1224.91 1041.42C1305.88 960.468 1336.49 842.094 1259.94 763.019L1260 762.988C1259.64 762.654 1258.34 761.354 1258.01 761.005C1258.01 761.005 1258.01 761.036 1257.95 761.036C1178.92 684.523 1060.56 715.118 979.567 796.069C897.936 877.716 888.791 985.084 918.646 1040.82C910.956 1086.47 848.338 1135.99 792.173 1168.13C748.858 1141.41 694.235 1094.19 688.497 999.253C692.646 961.33 680.155 921.922 651.134 892.899C648.471 890.235 640.809 883.754 640.809 883.754L429.223 718.964L409.949 738.223L639.538 953.609L614.634 978.512L392.207 756.069L371.784 776.477L594.18 998.933L573.152 1019.96L350.756 797.567L332.148 816.008L553.213 1037.09L527.885 1062.51L313.088 835.112L292 856.263L467.584 1077.51C467.584 1077.51 471.764 1081.79 473.533 1083.37C499.088 1105.7 531.168 1116.23 562.915 1115.34C563.142 1115.34 563.475 1115.4 563.595 1115.43C647.194 1116.27 698.851 1167.09 731.34 1210.93C651.846 1290.47 405.136 1537.21 405.136 1537.21L405.196 1537.27C404.953 1537.45 404.635 1537.66 404.393 1537.91C384.303 1557.98 384.303 1590.56 404.393 1610.7C405.422 1611.7 409.297 1615.54 410.282 1616.57C430.372 1636.68 463 1636.68 483.058 1616.6C483.301 1616.36 483.512 1616.06 483.71 1615.79L483.77 1615.88C483.77 1615.88 712.874 1386.76 800.713 1298.95C884.311 1382.52 1116.03 1614.18 1116.03 1614.18L1116.09 1614.12C1116.27 1614.34 1116.37 1614.64 1116.67 1614.94C1136.41 1634.65 1168.63 1634.65 1188.4 1614.88C1208.17 1595.08 1208.23 1562.98 1188.43 1543.15C1188.13 1542.88 1187.83 1542.79 1187.58 1542.52L1187.64 1542.46C1187.64 1542.46 931.697 1286.54 860.693 1215.48C892.758 1163.21 938.116 1109.42 980.174 1102.34ZM952.983 949.46C954.192 935.88 956.918 920.257 961.429 903.724C963.821 895.505 966.636 887.04 970.06 878.487C973.844 869.799 977.813 861.712 983.625 853.25C994.737 837.007 1008.27 824.378 1021.75 813.782C1035.07 803.048 1048.6 794.706 1060.62 788.379C1072.55 781.929 1083.24 777.751 1090.87 775.359C1098.62 772.815 1103.13 772.482 1103.13 772.482C1103.13 772.482 1099.41 775.299 1093.84 780.506C1088.21 785.744 1080.18 793.254 1070.53 802.245C1051.99 820.323 1025.59 843.788 1006.88 869.311C1002.37 875.141 998.341 882.831 994.828 889.87C991.013 897.063 987.62 904.495 984.534 911.852C978.113 926.477 972.815 940.646 968.244 952.866C963.793 965.114 960.311 975.468 958.252 982.827C956.011 990.2 956.313 994.575 956.678 994.575C956.498 994.849 953.741 990.609 952.926 982.478C951.922 974.439 951.711 963.009 952.983 949.46Z" fill="#F0F0F0"/>
</svg>
