<svg width="2195" height="2195" viewBox="0 0 2195 2195" fill="none" xmlns="http://www.w3.org/2000/svg">
<circle cx="1097.5" cy="1097.5" r="1072.5" fill="#282D4F" stroke="#23103A" stroke-width="50"/>
<path d="M1422 509.5L1068 218L701 509.5L849.5 1114.5L509.5 1039L628 1797.5H1484L1867.5 1055L1673 766L1392 858L1422 509.5Z" fill="#992800"/>
<path d="M1696.53 712.939L1415.74 821.772L1467.73 490.42L1067.69 166L667.655 489.727L759.865 1074.79L513.74 978.437L321 1270.28L598.324 1829H1526.67L1731.89 1414.46L1917 1049.14L1696.53 712.939ZM1645.92 832.17L1643.84 983.982L1521.81 938.924L1645.92 832.17ZM793.837 1760.37L653.789 1185.01L551.179 1065.78L772.345 1155.9L868.022 1760.37H793.837ZM765.412 499.432L965.085 334.449L892.288 507.75L765.412 499.432ZM1207.05 1760.37L1256.28 1266.12L1299.95 1126.78L1112.07 1235.62V1760.37H1033.72L967.165 520.228L1068.39 255.424L1395.63 518.148L1299.95 1126.78L1445.55 1287.61L1292.33 1760.37H1207.05ZM1478.83 1760.37H1420.59L1718.02 1012.4L1714.55 866.831L1837.27 1054L1478.83 1760.37Z" fill="#E65B00"/>
<path d="M1301.17 1268.34C1356.92 1298.21 1464.29 1289.06 1545.91 1207.42C1626.88 1126.47 1657.49 1008.09 1580.94 929.019L1581 928.988C1580.64 928.654 1579.34 927.354 1579.01 927.005C1579.01 927.005 1579.01 927.036 1578.95 927.036C1499.92 850.523 1381.56 881.118 1300.57 962.069C1218.94 1043.72 1209.79 1151.08 1239.65 1206.82C1231.96 1252.47 1169.34 1301.99 1113.17 1334.13C1069.86 1307.41 1015.24 1260.19 1009.5 1165.25C1013.65 1127.33 1001.16 1087.92 972.134 1058.9C969.471 1056.24 961.809 1049.75 961.809 1049.75L750.223 884.964L730.949 904.223L960.538 1119.61L935.634 1144.51L713.207 922.069L692.784 942.477L915.18 1164.93L894.152 1185.96L671.756 963.567L653.148 982.008L874.213 1203.09L848.885 1228.51L634.088 1001.11L613 1022.26L788.584 1243.51C788.584 1243.51 792.764 1247.79 794.533 1249.37C820.088 1271.7 852.168 1282.23 883.915 1281.34C884.142 1281.34 884.475 1281.4 884.595 1281.43C968.194 1282.27 1019.85 1333.09 1052.34 1376.93C972.846 1456.47 726.136 1703.21 726.136 1703.21L726.196 1703.27C725.953 1703.45 725.635 1703.66 725.393 1703.91C705.303 1723.98 705.303 1756.56 725.393 1776.7C726.422 1777.7 730.297 1781.54 731.282 1782.57C751.372 1802.68 784 1802.68 804.058 1782.6C804.301 1782.36 804.512 1782.06 804.71 1781.79L804.77 1781.88C804.77 1781.88 1033.87 1552.76 1121.71 1464.95C1205.31 1548.52 1437.03 1780.18 1437.03 1780.18L1437.09 1780.12C1437.27 1780.34 1437.37 1780.64 1437.67 1780.94C1457.41 1800.65 1489.63 1800.65 1509.4 1780.88C1529.17 1761.08 1529.23 1728.98 1509.43 1709.15C1509.13 1708.88 1508.83 1708.79 1508.58 1708.52L1508.64 1708.46C1508.64 1708.46 1252.7 1452.54 1181.69 1381.48C1213.76 1329.21 1259.12 1275.42 1301.17 1268.34ZM1273.98 1115.46C1275.19 1101.88 1277.92 1086.26 1282.43 1069.72C1284.82 1061.5 1287.64 1053.04 1291.06 1044.49C1294.84 1035.8 1298.81 1027.71 1304.62 1019.25C1315.74 1003.01 1329.27 990.378 1342.75 979.782C1356.07 969.048 1369.6 960.706 1381.62 954.379C1393.55 947.929 1404.24 943.751 1411.87 941.359C1419.62 938.815 1424.13 938.482 1424.13 938.482C1424.13 938.482 1420.41 941.299 1414.84 946.506C1409.21 951.744 1401.18 959.254 1391.53 968.245C1372.99 986.323 1346.59 1009.79 1327.88 1035.31C1323.37 1041.14 1319.34 1048.83 1315.83 1055.87C1312.01 1063.06 1308.62 1070.5 1305.53 1077.85C1299.11 1092.48 1293.81 1106.65 1289.24 1118.87C1284.79 1131.11 1281.31 1141.47 1279.25 1148.83C1277.01 1156.2 1277.31 1160.58 1277.68 1160.58C1277.5 1160.85 1274.74 1156.61 1273.93 1148.48C1272.92 1140.44 1272.71 1129.01 1273.98 1115.46Z" fill="#F0F0F0"/>
</svg>
